<?xml version="1.0" encoding="utf-8"?>
<!-- Generator: Adobe Illustrator 24.2.0, SVG Export Plug-In . SVG Version: 6.00 Build 0)  -->
<svg version="1.1" id="Layer_1" xmlns="http://www.w3.org/2000/svg" xmlns:xlink="http://www.w3.org/1999/xlink" x="0px" y="0px"
	 viewBox="0 0 595.28 841.89" style="enable-background:new 0 0 595.28 841.89;" xml:space="preserve">
<style type="text/css">
	.st0{fill:#141414;stroke:#000000;stroke-miterlimit:10;}
	.st1{fill:#F90B0B;}
	.st2{fill:#161616;}
	.st3{fill:#171717;}
</style>
<polygon class="st0" points="139.87,457.29 254.26,228.02 330.85,380.7 287.96,380.7 255.28,314.83 181.74,457.29 "/>
<polygon class="st1" points="310.6,420.94 352.47,421 369.83,457.35 326.94,457.35 "/>
<path class="st2" d="M619.87,374.57"/>
<polyline class="st2" points="362.51,342.71 428.89,457.35 471.79,457.35 424.81,374.63 408.47,342.71 365.57,342.71 "/>
<path class="st3" d="M603.02,354.15"/>
<path class="st2" d="M405.91,342.57c3.69-0.57,6.27-1.8,7.83-2.72c3.95-2.33,6.43-5.89,11.23-12.94c1.96-2.88,2.96-4.36,3.74-6.13
	c0.61-1.37,1.92-4.67,2.38-11.23c0.2-2.81,0.61-8.78-0.68-14.3c-3.15-13.44-16.67-25.25-29.96-27.23
	c-0.36-0.05-0.19-0.02-15.32-0.34c-9.57-0.2-14.41-0.31-15.66-0.34c-29.43-0.6-46.64,4.16-48.34,0c-3.2-7.8,50.47-41.63,83.4-36.77
	c9.64,1.42,18.38,5.11,18.38,5.11c3.55,1.5,13.5,6.02,23.15,15.32c17.82,17.19,21.75,38.31,22.47,42.55
	c0.82,4.88,3.83,25.57-7.15,47.32c-2.69,5.33-7.55,14.95-17.7,22.81c-7.81,6.04-20.77,12.59-20.77,12.6
	C422.93,376.27,416.28,363.09,405.91,342.57z"/>
<polygon class="st2" points="320.45,266.35 303.11,230.09 401.49,230.16 "/>
</svg>
